<?xml version="1.0" standalone="no"?>
<!DOCTYPE svg PUBLIC "-//W3C//DTD SVG 20010904//EN"
 "http://www.w3.org/TR/2001/REC-SVG-20010904/DTD/svg10.dtd">
<svg version="1.0" xmlns="http://www.w3.org/2000/svg"
 width="4250.000000pt" height="4250.000000pt" viewBox="0 0 4250.000000 4250.000000"
 preserveAspectRatio="xMidYMid meet">

<g transform="translate(0.000000,4250.000000) scale(0.100000,-0.100000)"
fill="#000000" stroke="none">
<path d="M20838 20174 c-2 -1644 -2 -2991 0 -2994 14 -21 624 -4 912 25 1237
126 2341 557 3320 1295 680 513 1299 1230 1694 1961 l47 87 -58 55 c-32 30
-120 109 -196 176 -1178 1029 -2608 1767 -4162 2146 -503 123 -1055 213 -1427
232 l-127 6 -3 -2989z"/>
<path d="M14987 22158 c464 -484 4838 -4984 4846 -4987 7 -3 8 81 4 275 -4
154 -7 1286 -7 2517 l0 2237 -2442 0 -2442 0 41 -42z"/>
</g>
</svg>
