<svg xmlns="http://www.w3.org/2000/svg" viewBox="0 0 340 88" width="340" height="88" role="img" aria-label="Pynek">
  <defs>
    <linearGradient id="pg" x1="0" y1="0" x2="1" y2="1">
      <stop offset="0" stop-color="#2dd4ee"/>
      <stop offset="1" stop-color="#4f7cf7"/>
    </linearGradient>
  </defs>
  <!-- Shield mark -->
  <g transform="translate(6,8)">
    <path d="M36 0 L68 12 V38 C68 58 54 70 36 76 C18 70 4 58 4 38 V12 Z"
          fill="none" stroke="url(#pg)" stroke-width="4" stroke-linejoin="round"/>
    <path d="M36 14 L56 21.5 V38 C56 51 47 59.5 36 64 C25 59.5 16 51 16 38 V21.5 Z"
          fill="rgba(45,212,238,0.10)"/>
    <!-- Circuit-node P -->
    <path d="M28 50 V26 H40 A8 8 0 0 1 40 42 H28" fill="none" stroke="#2dd4ee" stroke-width="4" stroke-linecap="round" stroke-linejoin="round"/>
    <circle cx="28" cy="50" r="3.4" fill="#2dd4ee"/>
    <circle cx="48" cy="34" r="3" fill="#4f7cf7"/>
  </g>
  <!-- Wordmark -->
  <text x="94" y="60" font-family="Sora, 'Segoe UI', sans-serif" font-size="42" font-weight="700" letter-spacing="6" fill="#e8eef8">PYNEK</text>
</svg>
