<?xml version="1.0" standalone="no"?>
<!DOCTYPE svg PUBLIC "-//W3C//DTD SVG 20010904//EN"
 "http://www.w3.org/TR/2001/REC-SVG-20010904/DTD/svg10.dtd">
<svg version="1.0" xmlns="http://www.w3.org/2000/svg"
 width="512.000000pt" height="512.000000pt" viewBox="0 0 512.000000 512.000000"
 preserveAspectRatio="xMidYMid meet">

<g transform="translate(0.000000,512.000000) scale(0.100000,-0.100000)"
fill="#000000" stroke="none">
<path d="M1323 4788 c-78 -38 -35 -237 75 -347 79 -79 185 -121 304 -121 l58
0 0 -750 c0 -412 -3 -750 -7 -750 -3 0 -288 88 -633 195 -345 107 -640 195
-656 195 -17 0 -38 -6 -48 -13 -21 -15 -120 -323 -136 -423 -26 -160 26 -344
138 -486 46 -59 125 -127 174 -149 16 -7 28 -16 28 -20 0 -4 -58 -200 -130
-435 -71 -236 -130 -441 -130 -455 0 -14 10 -35 22 -46 15 -13 442 -150 1238
-398 668 -207 1360 -422 1536 -478 227 -70 329 -98 348 -93 33 8 45 33 90 186
20 69 39 131 41 138 3 9 56 -35 141 -117 117 -112 141 -131 168 -131 18 0 40
6 50 13 12 9 58 145 142 421 68 225 125 410 126 411 2 1 46 22 98 47 180 87
304 242 406 510 40 106 42 141 11 171 -16 16 -332 118 -1199 387 l-1178 365 0
853 0 852 58 0 c213 0 376 134 414 339 13 70 1 112 -38 130 -34 15 -1479 14
-1511 -1z m1373 -175 c-24 -48 -87 -102 -136 -118 -40 -13 -110 -15 -496 -13
-414 3 -452 4 -486 22 -43 21 -93 69 -114 109 l-15 27 631 0 631 0 -15 -27z
m-456 -1118 c0 -454 -1 -825 -2 -825 -2 0 -73 22 -158 48 l-155 48 -3 777 -2
777 160 0 160 0 0 -825z m-915 -709 c2622 -814 3281 -1019 3288 -1026 13 -11
-54 -158 -107 -238 -87 -132 -203 -215 -335 -243 -81 -17 -287 -6 -386 20
-199 53 -3075 956 -3117 978 -62 34 -148 125 -182 191 -39 76 -59 175 -53 253
5 53 65 280 83 311 3 4 30 -2 62 -12 31 -11 368 -116 747 -234z m430 -1025
c495 -154 1124 -350 1398 -435 275 -85 501 -157 503 -159 4 -3 -223 -763 -230
-774 -1 -1 -276 83 -611 188 -336 104 -981 305 -1435 446 -454 140 -829 259
-834 263 -4 5 44 180 108 389 64 210 116 383 116 386 0 2 19 -2 43 -10 23 -8
447 -140 942 -294z m2213 -648 c88 -5 112 -9 112 -20 0 -16 -158 -540 -169
-561 -5 -8 -42 21 -113 88 l-105 99 58 193 c33 106 62 199 64 207 3 8 12 10
23 6 9 -4 68 -10 130 -12z"/>
<path d="M3723 4789 c-33 -17 -48 -62 -34 -98 15 -36 48 -51 110 -51 151 0
351 -71 488 -175 207 -155 353 -431 353 -665 0 -63 15 -96 51 -111 23 -9 36
-9 58 1 43 17 54 55 46 152 -44 510 -457 919 -960 952 -58 4 -98 2 -112 -5z"/>
<path d="M3723 4468 c-32 -16 -48 -61 -34 -97 14 -34 48 -51 99 -51 141 -1
322 -94 410 -212 74 -99 121 -224 122 -320 0 -78 50 -123 109 -98 46 18 56 57
43 154 -43 325 -283 574 -603 625 -79 13 -117 13 -146 -1z"/>
<path d="M3723 4148 c-12 -6 -27 -23 -34 -39 -23 -58 21 -109 94 -109 99 -1
216 -118 217 -217 0 -74 51 -117 109 -93 43 18 57 58 43 131 -16 87 -54 162
-110 218 -56 56 -107 85 -189 106 -66 17 -99 18 -130 3z"/>
</g>
</svg>
