<?xml version="1.0" standalone="no"?>
<!DOCTYPE svg PUBLIC "-//W3C//DTD SVG 20010904//EN"
 "http://www.w3.org/TR/2001/REC-SVG-20010904/DTD/svg10.dtd">
<svg version="1.0" xmlns="http://www.w3.org/2000/svg"
 width="512.000000pt" height="512.000000pt" viewBox="0 0 512.000000 512.000000"
 preserveAspectRatio="xMidYMid meet">

<g transform="translate(0.000000,512.000000) scale(0.100000,-0.100000)"
fill="#000000" stroke="none">
<path d="M573 4170 c-18 -10 -40 -34 -50 -52 -16 -31 -18 -111 -21 -1300 l-4
-1268 2056 0 2056 0 0 1263 c0 1409 5 1305 -69 1354 l-34 23 -1951 0 c-1917 0
-1952 0 -1983 -20z m3876 -146 c21 -27 21 -29 21 -1154 0 -1125 0 -1127 -21
-1154 l-20 -26 -1870 0 c-1856 0 -1869 0 -1889 20 -20 20 -20 33 -20 1164 l0
1145 22 15 c20 14 216 16 1889 16 l1868 0 20 -26z"/>
<path d="M770 2865 l0 -1055 1785 0 1785 0 0 1055 0 1055 -1785 0 -1785 0 0
-1055z m1330 903 c25 -27 25 -49 1 -79 -18 -23 -26 -24 -159 -27 -183 -4 -176
3 -180 -181 -3 -106 -7 -140 -19 -153 -21 -24 -58 -23 -83 2 -18 18 -20 33
-20 162 0 160 14 208 74 252 50 38 83 44 228 45 129 1 138 0 158 -21z m1256 3
c51 -23 99 -81 113 -137 6 -23 11 -94 11 -157 0 -100 -3 -117 -21 -141 -25
-31 -61 -34 -89 -6 -18 18 -20 33 -20 155 0 179 3 175 -159 175 -157 0 -191
13 -191 72 0 49 29 58 180 58 110 0 143 -4 176 -19z m-601 -166 c206 -56 373
-194 463 -383 40 -85 37 -119 -11 -136 -41 -15 -56 -1 -102 89 -115 228 -380
365 -630 325 -156 -25 -161 -25 -180 3 -52 80 67 130 285 122 63 -2 142 -11
175 -20z m-601 -146 c14 -11 26 -30 26 -41 0 -12 -28 -50 -63 -87 -37 -40 -80
-99 -105 -149 -48 -91 -72 -107 -117 -78 -35 23 -32 59 11 146 39 77 175 230
205 230 9 0 28 -9 43 -21z m525 -44 c93 -22 177 -70 252 -145 152 -151 196
-361 121 -580 -78 -226 -222 -411 -412 -528 -92 -57 -119 -63 -150 -32 -39 39
-22 76 57 120 141 80 259 203 333 350 70 140 98 266 80 360 -63 330 -444 457
-685 229 -65 -61 -115 -154 -118 -220 -2 -38 1 -44 20 -47 18 -3 25 6 43 55
46 123 99 185 200 232 45 21 70 25 138 26 80 0 85 -1 108 -28 17 -20 23 -35
18 -50 -13 -42 -24 -47 -106 -47 -58 0 -89 -5 -117 -19 -46 -24 -92 -75 -110
-122 -33 -87 -47 -112 -78 -139 -72 -64 -185 -44 -228 40 -35 67 -6 209 65
320 66 102 199 196 323 226 72 17 170 17 246 -1z m-44 -394 c74 -42 87 -130
36 -251 -92 -222 -305 -369 -533 -370 -48 0 -59 4 -72 22 -41 58 -13 87 104
104 118 18 202 56 275 125 90 85 162 257 113 267 -12 2 -22 -6 -29 -25 -73
-178 -134 -238 -191 -186 -26 23 -22 57 11 104 17 22 42 71 56 110 45 116 133
155 230 100z m241 -86 c23 -24 25 -31 19 -78 -32 -235 -199 -449 -442 -569
-113 -55 -145 -57 -165 -12 -21 45 -1 74 72 103 203 83 384 295 409 480 6 48
14 69 31 83 30 24 46 23 76 -7z m-582 -234 c10 -11 16 -31 14 -48 -4 -35 -49
-59 -135 -71 -89 -12 -123 4 -123 60 0 34 32 58 80 59 19 1 46 5 60 9 45 14
86 11 104 -9z m-551 -288 c12 -14 16 -48 19 -155 4 -186 -1 -181 190 -188 142
-5 142 -5 157 -32 14 -25 14 -29 -5 -55 l-21 -28 -138 -3 c-131 -2 -141 -1
-191 23 -33 16 -62 40 -80 67 -28 40 -29 45 -32 194 -4 143 -3 153 17 173 26
26 62 27 84 4z m1716 -9 c18 -23 21 -41 21 -135 0 -151 -12 -201 -64 -254 -53
-55 -90 -65 -246 -65 -142 0 -170 10 -170 60 0 52 19 60 149 60 125 0 175 11
191 40 6 10 10 77 10 149 0 118 2 133 20 151 28 28 64 25 89 -6z"/>
<path d="M271 1307 c4 -103 7 -118 36 -178 39 -79 102 -140 181 -177 l57 -27
2015 0 2015 0 57 28 c146 71 218 206 218 405 l0 62 -890 0 -890 0 0 -55 c0
-70 -17 -112 -63 -152 -60 -53 -79 -55 -473 -51 l-361 3 -40 27 c-58 38 -84
86 -91 164 l-5 64 -884 0 -885 0 3 -113z"/>
<path d="M2160 1391 c0 -15 5 -42 11 -59 17 -50 45 -54 412 -50 l329 3 19 24
c12 15 19 39 19 67 l0 44 -395 0 -395 0 0 -29z"/>
</g>
</svg>
