<?xml version="1.0" standalone="no"?>
<!DOCTYPE svg PUBLIC "-//W3C//DTD SVG 20010904//EN"
 "http://www.w3.org/TR/2001/REC-SVG-20010904/DTD/svg10.dtd">
<svg version="1.0" xmlns="http://www.w3.org/2000/svg"
 width="50.000000pt" height="50.000000pt" viewBox="0 0 50.000000 50.000000"
 preserveAspectRatio="xMidYMid meet">
<metadata>
Created by potrace 1.10, written by Peter Selinger 2001-2011
</metadata>
<g transform="translate(0.000000,50.000000) scale(0.100000,-0.100000)"
fill="#000000" stroke="none">
<path d="M40 455 c-11 -13 -11 -21 -2 -36 7 -10 12 -41 12 -69 l0 -50 39 0 39
0 0 -50 0 -50 -39 0 -39 0 0 -50 c0 -28 -6 -59 -12 -70 -10 -16 -10 -23 4 -36
9 -9 23 -14 32 -11 13 5 14 18 9 72 l-6 65 28 0 c19 0 26 -4 22 -14 -3 -7 -1
-18 3 -22 8 -8 228 -10 235 -2 4 5 9 125 7 186 l-2 53 -122 -3 c-111 -3 -123
-5 -120 -20 2 -13 -4 -18 -24 -18 -26 0 -26 0 -23 67 3 56 1 68 -12 71 -9 1
-22 -4 -29 -13z m302 -205 l0 -92 -92 0 -92 0 1 91 c0 50 0 92 1 94 0 1 41 1
91 0 l91 -1 0 -92z"/>
<path d="M190 275 l-24 -26 26 -26 c30 -30 60 -23 32 8 -16 18 -16 20 -1 37
16 17 14 32 -3 32 -4 0 -17 -11 -30 -25z"/>
<path d="M267 293 c-4 -3 0 -15 10 -25 15 -17 15 -19 -1 -37 -28 -31 2 -38 32
-8 l26 26 -24 26 c-25 26 -32 29 -43 18z"/>
<path d="M190 451 c0 -10 -10 -25 -22 -34 -13 -8 -20 -18 -16 -22 13 -13 60 5
65 25 6 24 63 29 63 5 0 -20 37 -38 65 -31 28 7 56 -22 49 -51 -7 -26 12 -63
31 -63 10 0 15 -10 15 -30 0 -20 -5 -30 -15 -30 -19 0 -38 -37 -31 -63 7 -29
-21 -58 -49 -51 -28 7 -65 -11 -65 -31 0 -24 -57 -19 -63 5 -5 20 -52 38 -65
25 -4 -4 3 -14 16 -22 12 -9 22 -24 22 -34 0 -17 8 -19 60 -19 57 0 60 1 60
25 0 27 11 31 38 14 15 -9 24 -5 56 27 32 32 36 41 27 56 -17 27 -13 38 14 38
24 0 25 3 25 60 0 57 -1 60 -25 60 -27 0 -31 11 -14 38 9 15 5 24 -27 56 -32
32 -41 36 -56 27 -27 -17 -38 -13 -38 14 0 24 -3 25 -60 25 -52 0 -60 -2 -60
-19z"/>
</g>
</svg>
