<?xml version="1.0" standalone="no"?>
<!DOCTYPE svg PUBLIC "-//W3C//DTD SVG 20010904//EN"
 "http://www.w3.org/TR/2001/REC-SVG-20010904/DTD/svg10.dtd">
<svg version="1.0" xmlns="http://www.w3.org/2000/svg"
 width="50.000000pt" height="50.000000pt" viewBox="0 0 50.000000 50.000000"
 preserveAspectRatio="xMidYMid meet">
<metadata>
Created by potrace 1.10, written by Peter Selinger 2001-2011
</metadata>
<g transform="translate(0.000000,50.000000) scale(0.100000,-0.100000)"
fill="#000000" stroke="none">
<path d="M294 483 c5 -16 -2 -18 -52 -18 -81 0 -145 -40 -184 -114 -28 -54
-40 -151 -18 -151 6 0 10 21 10 48 1 85 46 155 122 187 41 16 134 22 108 5
-23 -14 -4 -23 22 -9 12 6 24 13 26 14 1 1 -3 14 -9 29 -14 29 -34 36 -25 9z"/>
<path d="M373 446 c-4 -8 -17 -15 -28 -18 -16 -3 -20 -12 -21 -51 -1 -37 3
-50 15 -54 9 -3 24 -13 34 -22 15 -12 22 -13 35 -3 9 7 27 16 38 21 18 8 21
17 20 58 -1 39 -5 48 -21 51 -11 3 -24 10 -28 18 -4 8 -14 14 -22 14 -8 0 -18
-6 -22 -14z m63 -36 c6 0 10 -15 10 -34 0 -25 -6 -37 -25 -48 -23 -12 -29 -12
-52 1 -19 11 -26 22 -26 48 0 19 5 33 12 33 7 0 18 7 25 15 12 14 15 14 30 0
9 -8 21 -15 26 -15z"/>
<path d="M377 398 c-23 -12 -22 -35 2 -48 15 -7 23 -6 35 5 27 28 -3 63 -37
43z"/>
<path d="M241 254 c-35 -74 -35 -74 -22 -74 5 0 23 30 40 66 35 74 35 74 22
74 -5 0 -23 -30 -40 -66z"/>
<path d="M160 275 l-24 -26 27 -26 c30 -30 50 -24 22 7 -17 19 -17 21 -2 38
35 38 12 45 -23 7z"/>
<path d="M300 293 c0 -3 7 -15 17 -25 15 -17 15 -19 -2 -38 -28 -31 -8 -37 22
-7 l27 26 -24 26 c-23 24 -40 32 -40 18z"/>
<path d="M450 255 c0 -84 -42 -152 -115 -186 -41 -19 -144 -27 -115 -9 23 14
4 23 -22 9 -12 -6 -24 -13 -26 -14 -1 -1 3 -14 9 -29 14 -29 34 -36 25 -8 -5
15 2 17 52 17 111 0 200 85 210 200 3 32 0 55 -7 59 -7 5 -11 -8 -11 -39z"/>
<path d="M72 194 c-12 -8 -22 -24 -22 -34 0 -10 -5 -22 -10 -25 -18 -11 -10
-52 15 -79 14 -15 30 -24 36 -20 8 5 7 10 -4 16 -12 6 -15 17 -10 38 3 17 1
36 -5 43 -15 18 12 57 38 57 24 0 54 -40 40 -54 -13 -13 -13 -53 1 -62 6 -3
18 1 27 10 12 12 13 20 4 38 -6 13 -14 33 -17 46 -4 13 -18 27 -32 33 -32 12
-35 12 -61 -7z"/>
</g>
</svg>
