<?xml version="1.0" encoding="UTF-8"?>
<svg version="1.1" xmlns="http://www.w3.org/2000/svg" width="512" height="512">
<path d="M0 0 C3.25390625 1.58203125 3.25390625 1.58203125 6.5625 3.8125 C34.58205024 21.70797461 67.03635043 31.61446912 99.99658203 34.8371582 C106.42341485 35.55586167 106.42341485 35.55586167 109.55078125 37.96484375 C117.0677019 48.52095065 110.97936101 73.15893818 109.03515625 85.20703125 C108.65541693 87.36842535 108.26878965 89.52862156 107.875 91.6875 C107.71169189 92.62770996 107.54838379 93.56791992 107.38012695 94.53662109 C105.80184074 102.69656838 103.35496116 110.5393999 100.88720703 118.46801758 C100.51378677 119.67431068 100.14036652 120.88060379 99.75563049 122.12345123 C98.83916206 125.08295113 97.92056163 128.04177127 97 131 C97.81961118 131.00238835 98.63922235 131.00477671 99.48367023 131.00723743 C119.45767904 131.06646029 139.43156792 131.14205692 159.40544605 131.23571491 C169.06480122 131.280616 178.72411998 131.32004373 188.38354492 131.34643555 C196.80600608 131.36946174 205.2283515 131.40291122 213.65072078 131.44870156 C218.10730638 131.47257158 222.5637778 131.49134103 227.0204258 131.49761391 C231.22214501 131.50369303 235.42357229 131.52379407 239.62518311 131.55427551 C241.16053421 131.56301067 242.69592353 131.56678778 244.23129845 131.56500816 C258.29635573 131.55386104 270.38328024 133.38100568 281.2265625 142.96875 C291.6190104 153.71150513 293.16365382 166.26707768 293.12025452 180.52893066 C293.12153615 182.08276655 293.12153615 182.08276655 293.12284368 183.66799307 C293.12448574 187.12568506 293.11899801 190.58332813 293.11352539 194.04101562 C293.11324322 196.52492268 293.11340184 199.00882981 293.1139679 201.49273682 C293.11419533 206.83356857 293.11136597 212.1743852 293.10573006 217.51521301 C293.09758689 225.23705637 293.09499695 232.95889383 293.09374207 240.68074101 C293.09155597 253.21034111 293.08490788 265.73993469 293.07543945 278.26953125 C293.06625389 290.43749967 293.05917865 302.60546631 293.05493164 314.7734375 C293.05453756 315.89936915 293.05453756 315.89936915 293.05413551 317.04804689 C293.05283043 320.81386776 293.05156673 324.57968864 293.05032361 328.34550953 C293.03996477 359.56367777 293.02228391 390.78183789 293 422 C293.61615173 422.19358597 294.23230347 422.38717194 294.86712646 422.58662415 C295.67635559 422.84719101 296.48558472 423.10775787 297.31933594 423.3762207 C298.12111267 423.63168167 298.9228894 423.88714264 299.7489624 424.15034485 C308.59817014 427.49048228 314.35555991 436.44667582 318.25 444.625 C321.13679111 453.76650518 320.85051646 463.62274967 316.9296875 472.39453125 C312.01783578 481.70851423 304.12002152 489.09021419 294.00197959 492.35661328 C287.23329375 493.80728357 280.17993424 493.41344437 273.28762817 493.38768005 C271.47278479 493.39185555 269.65794401 493.39733425 267.84310806 493.40399987 C262.86793427 493.41844485 257.89292627 493.41421267 252.91774344 493.40683305 C247.54748212 493.40210136 242.17725666 493.41461127 236.80700684 493.42485046 C226.29080253 493.4420438 215.77465796 493.44287735 205.25844325 493.43763756 C196.71040452 493.43359559 188.16238344 493.43503974 179.61434555 493.44038582 C178.39758197 493.44113424 177.18081838 493.44188266 175.92718317 493.44265376 C173.45530002 493.44418525 170.98341687 493.44572359 168.51153372 493.44726873 C145.33224158 493.46099573 122.15298318 493.45555469 98.97369181 493.44408352 C77.77145485 493.43415116 56.56930516 493.44709155 35.36708166 493.47101771 C13.59252558 493.49540446 -8.18198984 493.5050176 -29.9565593 493.49836498 C-42.17968224 493.4948718 -54.40273806 493.49711142 -66.62585068 493.51461601 C-77.03120992 493.52933266 -87.43645478 493.52998039 -97.84181176 493.5125451 C-103.1495071 493.50402835 -108.45699805 493.50190221 -113.76468277 493.51719666 C-118.62671096 493.53103334 -123.48835948 493.5262935 -128.35036565 493.50695742 C-130.10599968 493.503194 -131.86166404 493.50612923 -133.61727105 493.51656907 C-145.70274569 493.58330641 -156.46319206 492.68202037 -166.21875 484.765625 C-173.83943751 477.21178562 -177.6665743 467.77965584 -178.1875 457.1875 C-178.00573226 447.62651693 -174.93847254 439.57714377 -168.6875 432.3125 C-162.85092187 427.29032812 -158.54126271 424.05825276 -151 422 C-151.00184359 420.70532366 -151.00368717 419.41064732 -151.00558662 418.07673836 C-151.04892905 387.3240102 -151.08189441 356.5712903 -151.10213066 325.81853891 C-151.10463199 322.03104412 -151.10722064 318.24354939 -151.10986328 314.45605469 C-151.1103879 313.70205225 -151.11091252 312.94804982 -151.11145304 312.17119883 C-151.12014886 299.97237576 -151.1359143 287.7735716 -151.15430559 275.57475974 C-151.17302754 263.05191521 -151.18412158 250.52908056 -151.18817699 238.00622261 C-151.19091729 230.28279781 -151.19956342 222.55942647 -151.21583293 214.83601813 C-151.22768304 208.9075544 -151.22890555 202.97911791 -151.22621536 197.05064201 C-151.22676484 194.62310266 -151.23073321 192.19556125 -151.23841095 189.76803398 C-151.24839575 186.44775013 -151.24595587 183.12769292 -151.24050903 179.80740356 C-151.24633472 178.85212206 -151.2521604 177.89684056 -151.25816262 176.91261113 C-151.20344088 164.5282442 -148.42725755 152.50597396 -139.8125 143.125 C-129.53199336 133.84304147 -118.39179342 131.54943499 -105 132 C-105.37511719 130.93265625 -105.75023438 129.8653125 -106.13671875 128.765625 C-114.74892762 103.86295467 -120.0316896 78.52869051 -120.375 52.125 C-120.43107422 50.454375 -120.43107422 50.454375 -120.48828125 48.75 C-120.57381382 40.86199588 -120.57381382 40.86199588 -118.2421875 37.359375 C-113.21441944 35.25134695 -108.1380799 34.75533506 -102.75 34.125 C-81.59752371 31.29327456 -61.63714275 26.41362453 -42 18 C-41.24783203 17.67773438 -40.49566406 17.35546875 -39.72070312 17.0234375 C-33.08338464 14.1310011 -26.63582045 11.04559533 -20.44921875 7.2734375 C-19.31661621 6.58290283 -19.31661621 6.58290283 -18.16113281 5.87841797 C-16.72312074 4.98700206 -15.29569391 4.07817638 -13.88183594 3.14892578 C-8.98259796 0.07330648 -5.79444416 -0.76912283 0 0 Z M-12 21.4375 C-39.3497508 37.48369929 -68.68474206 45.94177179 -99.87133789 50.59863281 C-102.043311 50.90759617 -102.043311 50.90759617 -104 52 C-100.84534288 109.44135631 -79.92654884 161.34682535 -40 203 C-39.49742676 203.52980469 -38.99485352 204.05960938 -38.47705078 204.60546875 C-28.08409401 215.51337726 -16.78449518 224.98432445 -4 233 C4.95450243 226.85603483 13.07717084 220.44494422 21 213 C22.41059005 211.76386455 23.8267247 210.53400831 25.25 209.3125 C32.66511082 202.82991833 38.87791375 195.71302313 45 188 C45.78375 187.03320312 46.5675 186.06640625 47.375 185.0703125 C75.47377785 149.67665963 98.65888875 98.28919721 95 52 C93.40840651 50.40840651 91.55249873 50.53161495 89.35546875 50.203125 C88.37868164 50.05190186 87.40189453 49.90067871 86.39550781 49.74487305 C85.33686523 49.58156494 84.27822266 49.41825684 83.1875 49.25 C53.46965857 44.44477764 24.6416975 35.4334974 -0.90185547 19.12133789 C-5.42155066 16.70582009 -7.99391194 19.01400569 -12 21.4375 Z M-128.875 156.875 C-129.70644531 157.83019531 -129.70644531 157.83019531 -130.5546875 158.8046875 C-134.41845184 164.67343225 -134.28112946 170.59513806 -134.24050903 177.36434937 C-134.24221788 178.40669821 -134.24392673 179.44904706 -134.24568737 180.52298224 C-134.24898077 184.0145777 -134.23798085 187.50598085 -134.22705078 190.99755859 C-134.22648664 193.50087479 -134.22680329 196.00419132 -134.22793579 198.50750732 C-134.22839118 203.8964116 -134.2227195 209.28525606 -134.21146011 214.67414474 C-134.19519165 222.46552034 -134.18999573 230.25687253 -134.18748413 238.04826327 C-134.18310914 250.68990364 -134.16980536 263.33151818 -134.15087891 275.97314453 C-134.13251504 288.25178905 -134.11836101 300.53042655 -134.10986328 312.80908203 C-134.10933783 313.56620257 -134.10881239 314.3233231 -134.10827102 315.10338669 C-134.1056609 318.90171693 -134.1031335 322.70004723 -134.10064721 326.49837756 C-134.07992081 357.99893716 -134.04455173 389.49946465 -134 421 C-132.86913279 421.00219984 -132.86913279 421.00219984 -131.71541977 421.00444412 C-113.37949547 421.04147974 -95.04376219 421.10045118 -76.70798874 421.18390274 C-67.84096723 421.22372901 -58.97403493 421.25610322 -50.10693359 421.27099609 C-42.37925307 421.28399407 -34.65176854 421.31091107 -26.92419839 421.35461307 C-22.83164795 421.37726985 -18.73933961 421.39290817 -14.64672089 421.39188385 C-10.79540332 421.39113971 -6.94462182 421.40899061 -3.09344292 421.44116783 C-1.67932262 421.44969377 -0.26514239 421.4513985 1.14899254 421.44580269 C3.07878386 421.43918296 5.00861178 421.45940848 6.93829346 421.48101807 C8.01863483 421.48470524 9.09897621 421.48839241 10.21205521 421.49219131 C13.67175721 422.12235685 14.81757039 423.30487373 17 426 C18.17260742 427.9987793 18.17260742 427.9987793 19.10546875 430.07421875 C19.44900391 430.82380859 19.79253906 431.57339844 20.14648438 432.34570312 C20.49001953 433.11849609 20.83355469 433.89128906 21.1875 434.6875 C21.88761324 436.23384812 22.58935027 437.77946243 23.29296875 439.32421875 C23.5974292 440.00572998 23.90188965 440.68724121 24.21557617 441.3894043 C24.89208049 443.00077969 24.89208049 443.00077969 26 444 C28.7998972 444.09519368 31.57506174 444.12553944 34.37524414 444.11352539 C35.69219521 444.11374443 35.69219521 444.11374443 37.03575134 444.1139679 C39.95224435 444.11326844 42.86867433 444.10547455 45.78515625 444.09765625 C47.80154892 444.09579218 49.81794204 444.09436823 51.83433533 444.09336853 C57.15265138 444.08954244 62.4709403 444.07971139 67.78924561 444.06866455 C73.21170688 444.05845238 78.63417252 444.05387133 84.05664062 444.04882812 C94.70443903 444.0380892 105.35221726 444.02101169 116 444 C116.54269531 442.90300781 117.08539063 441.80601562 117.64453125 440.67578125 C118.3670797 439.22130061 119.08974196 437.7668765 119.8125 436.3125 C120.16892578 435.59126953 120.52535156 434.87003906 120.89257812 434.12695312 C126.24202128 423.37898936 126.24202128 423.37898936 129 422 C130.93823379 421.89426376 132.88011625 421.85335535 134.82119751 421.84178162 C136.68064247 421.82709839 136.68064247 421.82709839 138.57765198 421.81211853 C139.9588314 421.80621397 141.34001123 421.80040355 142.72119141 421.79467773 C144.16974672 421.78510173 145.61829922 421.77509182 147.06684875 421.76467896 C151.00666937 421.7375937 154.94650201 421.71660378 158.88636446 421.69667697 C163.00103743 421.67483971 167.11567319 421.64743999 171.23031616 421.62062073 C179.02528362 421.57066322 186.8202717 421.52573576 194.61527956 421.48259836 C203.48821671 421.43325209 212.36111654 421.3783243 221.23401761 421.32291877 C239.48931043 421.20905179 257.74463846 421.10222304 276 421 C276.09128946 388.79511788 276.16205884 356.59027263 276.20426132 324.38529131 C276.20926403 320.58148631 276.21444133 316.77768157 276.21972656 312.97387695 C276.2207758 312.21662159 276.22182505 311.45936624 276.22290608 310.67916375 C276.24030189 298.42466974 276.27183502 286.17025095 276.30861118 273.91580153 C276.34604358 261.33759474 276.3682407 248.75942728 276.37635398 236.18116707 C276.381837 228.4223541 276.39914213 220.66375373 276.43166587 212.90500622 C276.45534879 206.95129603 276.45781403 200.99769441 276.45243073 195.04393578 C276.45353051 192.60467852 276.4614784 190.16541316 276.4768219 187.72620392 C276.49676395 184.39221248 276.49192296 181.0591259 276.48101807 177.72511292 C276.49266943 176.76302762 276.5043208 175.80094233 276.51632524 174.80970293 C276.45170997 167.48588292 274.81206176 161.34875744 270.03515625 155.66015625 C269.38417969 155.13292969 268.73320312 154.60570312 268.0625 154.0625 C267.41410156 153.51722656 266.76570313 152.97195312 266.09765625 152.41015625 C261.43676148 149.27685455 257.51771145 148.75126537 251.94487 148.75949097 C251.24639397 148.75778212 250.54791794 148.75607327 249.82827598 148.75431263 C247.49438012 148.75102574 245.16077355 148.76200806 242.8269043 148.77294922 C241.15131131 148.77351351 239.47571782 148.77319643 237.80012512 148.77206421 C233.25506825 148.77149038 228.71011694 148.78324961 224.1650846 148.79721212 C219.4138389 148.80971442 214.66259079 148.81088959 209.91133118 148.81326294 C200.91581866 148.81947917 191.92035475 148.83589195 182.92486364 148.85596192 C172.6831114 148.87831643 162.44135684 148.88931323 152.19958627 148.89935279 C131.13303038 148.92025804 110.06651825 148.95543683 89 149 C88.63335739 149.65418915 88.26671478 150.3083783 87.88896179 150.98239136 C86.20316372 153.9870386 84.51371882 156.98962043 82.82421875 159.9921875 C81.95935852 161.53555786 81.95935852 161.53555786 81.07702637 163.11010742 C71.62959805 179.88104592 60.70234964 195.25279489 47.5234375 209.2890625 C45.42580917 211.54255176 43.4194089 213.83340164 41.4375 216.1875 C31.32070152 227.78016085 18.26150868 237.7008267 5.5 246.25 C4.4171875 246.97703125 3.334375 247.7040625 2.21875 248.453125 C-1.68440664 250.32891387 -3.71463298 250.68176293 -8 250 C-10.98816098 248.49035617 -13.58653085 246.58090313 -16.25 244.5625 C-16.99725342 244.01408447 -17.74450684 243.46566895 -18.5144043 242.90063477 C-36.39940312 229.66971051 -53.3538783 214.63288513 -67 197 C-67.42394043 196.4524707 -67.84788086 195.90494141 -68.28466797 195.34082031 C-79.42923623 180.83700148 -88.63837047 165.24408259 -97 149 C-100.16634636 148.88239285 -103.33212074 148.81228976 -106.5 148.75 C-107.386875 148.71648437 -108.27375 148.68296875 -109.1875 148.6484375 C-117.26932159 148.52958718 -123.54520662 150.52515047 -128.875 156.875 Z M-157 444 C-160.99865917 449.65056427 -162.03103267 455.18433139 -161 462 C-159.29441487 468.37052989 -155.68168245 471.4380523 -150.21875 474.87109375 C-145.77207159 477.13357625 -141.77722359 477.12667086 -136.81468582 477.13142776 C-136.08646653 477.1334804 -135.35824724 477.13553303 -134.6079607 477.13764787 C-132.15474096 477.14332636 -129.70157722 477.14185957 -127.24835205 477.14044189 C-125.47693656 477.14302504 -123.70552164 477.14603806 -121.93410754 477.1494453 C-117.05591019 477.15752444 -112.17772755 477.15930538 -107.29952431 477.16004276 C-102.04240142 477.16189172 -96.78528619 477.16943824 -91.52816772 477.17617798 C-80.02823523 477.18976814 -68.52830623 477.19578703 -57.02836704 477.20018864 C-49.85015603 477.2029498 -42.67194637 477.20718692 -35.49373627 477.21169281 C-15.62611094 477.22388617 4.24151331 477.23418548 24.1091423 477.2375679 C26.01702209 477.23789725 26.01702209 477.23789725 27.9634449 477.23823325 C29.87593224 477.23856067 29.87593224 477.23856067 31.82705569 477.2388947 C34.41074546 477.23933817 36.99443523 477.23978473 39.578125 477.24023438 C41.50053079 477.24056652 41.50053079 477.24056652 43.46177307 477.24090537 C64.23307995 477.24485424 85.00435177 477.26231069 105.77564511 477.2855939 C127.09236569 477.30929598 148.40906868 477.32176922 169.72580266 477.32293582 C181.69794578 477.3238532 193.67004322 477.32962148 205.64217377 477.34775543 C215.83581664 477.36314095 226.02939972 477.36828602 236.223052 477.36001733 C241.42500043 477.3561054 246.62682837 477.35706696 251.82876205 477.37107468 C256.59084664 477.38378084 261.35271978 477.38264497 266.11480394 477.37048396 C267.83756295 477.36852127 269.56033677 477.37163173 271.28307495 477.38032833 C273.62607994 477.39140727 275.96833687 477.38394207 278.31132126 477.3719368 C280.26286908 477.37283243 280.26286908 477.37283243 282.25384212 477.37374616 C288.64627224 476.73598708 294.45664984 474.66955433 299 470 C302.99865917 464.34943573 304.03103267 458.81566861 303 452 C301.29441487 445.62947011 297.68168245 442.5619477 292.21875 439.12890625 C288.10667143 437.03666909 284.48638556 436.875859 279.90032959 436.87974548 C278.64953613 436.87837082 277.39874268 436.87699615 276.11004639 436.87557983 C274.72668433 436.87911874 273.34332252 436.88275354 271.95996094 436.88647461 C270.50126141 436.88675672 269.04256175 436.88659827 267.5838623 436.8860321 C263.62553529 436.88574508 259.66723855 436.89162656 255.70891857 436.89860606 C251.57159262 436.90485531 247.43426598 436.90544465 243.29693604 436.90663147 C235.46305058 436.90974014 227.62917908 436.9179473 219.79529977 436.92798096 C210.87639434 436.93915648 201.95748824 436.94465618 193.03857756 436.94967639 C174.69237713 436.96013028 156.34618969 436.97772077 138 437 C137.46890625 438.08539063 136.9378125 439.17078125 136.390625 440.2890625 C135.6773009 441.73448239 134.96374699 443.17978889 134.25 444.625 C133.90195312 445.33785156 133.55390625 446.05070312 133.1953125 446.78515625 C131.06562108 451.08397782 128.9003722 455.16820746 126 459 C123.23335889 459.9222137 121.57857562 460.12923719 118.72463989 460.14044189 C117.41668457 460.14900711 117.41668457 460.14900711 116.08230591 460.15774536 C115.12847015 460.15886322 114.1746344 460.15998108 113.19189453 460.16113281 C112.18511658 460.16609772 111.17833862 460.17106262 110.14105225 460.17617798 C106.80496542 460.19080312 103.46892614 460.19760188 100.1328125 460.203125 C97.81737262 460.20887575 95.50193276 460.21463349 93.18649292 460.22039795 C88.32924172 460.23090866 83.47200707 460.23675101 78.61474609 460.24023438 C72.38805809 460.24572206 66.16158843 460.26975582 59.93496895 460.29820633 C55.15147256 460.31682029 50.36802891 460.32203763 45.58449936 460.32357025 C43.28876424 460.32659964 40.99303011 460.33463775 38.69733047 460.34775543 C35.48701554 460.36479113 32.2772362 460.36294165 29.06689453 460.35644531 C28.11710724 460.3656601 27.16731995 460.37487488 26.18875122 460.3843689 C21.31698603 460.35345356 17.9285707 460.22611469 14 457 C12.62207031 454.93115234 12.62207031 454.93115234 11.578125 452.5859375 C11.19269531 451.74289062 10.80726563 450.89984375 10.41015625 450.03125 C10.02730469 449.1546875 9.64445313 448.278125 9.25 447.375 C8.4649647 445.63217082 7.67857887 443.88994911 6.890625 442.1484375 C6.38063965 440.99093994 6.38063965 440.99093994 5.86035156 439.81005859 C5.13500368 438.02331 5.13500368 438.02331 4 437 C2.1072049 436.89686634 0.21052172 436.86477874 -1.68507385 436.85955811 C-2.92018204 436.85384796 -4.15529022 436.84813782 -5.42782593 436.84225464 C-6.80938711 436.84100911 -8.1909484 436.83988405 -9.57250977 436.83886719 C-11.01778796 436.83424116 -12.46306493 436.8292168 -13.90834045 436.82382202 C-17.84670884 436.8106693 -21.78506015 436.8042467 -25.72344708 436.79981136 C-28.18440243 436.79688333 -30.64535308 436.79277889 -33.10630608 436.78830719 C-40.80674359 436.77462047 -48.50717041 436.76496137 -56.20761925 436.7611053 C-65.09414599 436.75663104 -73.98051842 436.73911759 -82.86699826 436.7101047 C-89.73503037 436.68846161 -96.60301917 436.6783995 -103.47108501 436.67706418 C-107.572693 436.6760174 -111.67415617 436.67013757 -115.77572823 436.65224457 C-119.63923495 436.63571993 -123.50248874 436.63362956 -127.3660183 436.64238358 C-128.7801036 436.64315179 -130.19420272 436.63883973 -131.60825348 436.62892532 C-141.18891146 436.56572263 -149.89910729 436.70186027 -157 444 Z " fill="#000000" transform="translate(185,10)"/>
<path d="M0 0 C10.21261972 8.26593267 17.01499527 18.96035118 19 32 C19.20897807 36.05696895 19.13669643 40.09580525 19.0625 44.15625 C19.0535687 46.50129411 19.04713418 48.84634883 19.04296875 51.19140625 C19.02871543 54.85254331 18.99978708 58.51089072 18.92822266 62.17138672 C17.85952302 75.9437578 17.85952302 75.9437578 22.12597656 88.45800781 C24.63971101 90.68530859 27.09557194 92.3325166 30 94 C43.62953141 107.51071856 49.32356904 127.30312956 49.5 146 C49.25315436 168.18003022 41.03197665 186.45913461 25.69921875 202.390625 C9.29204836 218.18017686 -11.03590518 223.59095121 -33.3125 223.26953125 C-51.16213776 222.66722466 -67.87911984 214.97035522 -81 203 C-81.91265625 202.22462891 -81.91265625 202.22462891 -82.84375 201.43359375 C-91.82386998 193.29025768 -98.17403502 181.35786467 -102 170 C-102.31839844 169.05511719 -102.63679688 168.11023438 -102.96484375 167.13671875 C-108.72366656 146.67564785 -105.21060495 125.13220119 -95.21875 106.7109375 C-90.94189673 99.28372357 -85.25057684 92.83594487 -79 87 C-78.34 87 -77.68 87 -77 87 C-77.00444122 86.40024353 -77.00888245 85.80048706 -77.01345825 85.18255615 C-77.05802751 78.88735357 -77.08800453 72.59219649 -77.10986328 66.296875 C-77.11986282 63.95375749 -77.13346683 61.61065227 -77.15087891 59.26757812 C-77.17539495 55.88147937 -77.18654391 52.49554694 -77.1953125 49.109375 C-77.20563507 48.07762146 -77.21595764 47.04586792 -77.22659302 45.98284912 C-77.22909873 29.39338813 -73.73124727 16.25669259 -62.19140625 4.09375 C-44.95990237 -12.24214557 -19.31436651 -13.36712755 0 0 Z M-53.41503906 18.85668945 C-61.55082742 29.85855112 -60.60320746 41.71752954 -60.3125 54.75 C-60.28737221 56.71872151 -60.264567 58.6874741 -60.24414062 60.65625 C-60.18953189 65.43827916 -60.10351008 70.21878962 -60 75 C-56.44219804 74.39009109 -53.3171411 73.4216319 -50 72 C-49.9906543 70.89076172 -49.98130859 69.78152344 -49.97167969 68.63867188 C-49.93157898 64.49341794 -49.86576602 60.3488906 -49.79248047 56.20410156 C-49.76438666 54.4157856 -49.74311486 52.62734814 -49.72900391 50.83886719 C-49.70741249 48.25653398 -49.66068291 45.67564381 -49.609375 43.09375 C-49.60753204 41.90888 -49.60753204 41.90888 -49.60565186 40.70007324 C-49.4450053 34.50689418 -47.89979702 29.06726473 -43.55316162 24.46960449 C-37.53928164 19.26326284 -33.07961684 18.54733871 -25.265625 18.6875 C-19.25549126 19.26263242 -15.12979117 21.45815265 -11.125 25.9375 C-7.20022787 31.59378925 -6.6820592 36.09878573 -6.5859375 42.80078125 C-6.56657135 43.63715622 -6.5472052 44.47353119 -6.5272522 45.33525085 C-6.46769808 47.9942317 -6.42116826 50.6532564 -6.375 53.3125 C-6.33679794 55.12046109 -6.29774491 56.92840442 -6.2578125 58.73632812 C-6.16201655 63.15740698 -6.07789669 67.57857101 -6 72 C-3.03 72.99 -0.06 73.98 3 75 C3.0499429 70.07447742 3.0859729 65.14910664 3.10986328 60.22338867 C3.11983703 58.55246407 3.1334209 56.88155653 3.15087891 55.21069336 C3.54364233 35.40271879 3.54364233 35.40271879 -5 18 C-12.10300947 11.02828461 -18.87442946 7.93615669 -28.75 7.4375 C-38.18064016 7.65987308 -47.20162883 11.57451517 -53.41503906 18.85668945 Z M-33 36 C-34.15927528 39.47782583 -34.11313066 42.18803257 -34.09765625 45.85546875 C-34.0962413 46.51710526 -34.09482635 47.17874176 -34.09336853 47.86042786 C-34.08777996 49.96949828 -34.07522965 52.07846177 -34.0625 54.1875 C-34.05748352 55.61913909 -34.05292087 57.05077985 -34.04882812 58.48242188 C-34.0378143 61.98831588 -34.02055755 65.4941475 -34 69 C-30.04 69 -26.08 69 -22 69 C-21.95046313 64.80079763 -21.91421589 60.60175131 -21.89013672 56.40234375 C-21.88009573 54.97457922 -21.86646019 53.54683517 -21.84912109 52.11914062 C-21.82478848 50.06375059 -21.81349798 48.00863308 -21.8046875 45.953125 C-21.79421387 44.71723633 -21.78374023 43.48134766 -21.77294922 42.20800781 C-21.98861146 39.1609091 -22.22261665 37.45825675 -24 35 C-28.1445911 33.76544095 -29.32149608 33.54766405 -33 36 Z M-76 108 C-85.6467895 120.55745875 -90.25969931 136.20940303 -89 152 C-85.86581748 169.94543364 -78.3281105 184.02425719 -63.9375 195.4375 C-51.43827304 204.01342836 -35.3027907 209.29886936 -20.09277344 206.67041016 C-2.03666591 203.11888541 13.08790122 194.35146288 23.625 179 C32.62564802 164.32326764 35.05011088 147.45912049 31.1640625 130.7890625 C25.62520497 112.75989539 14.53239169 99.99130075 -2 91 C-27.86183608 78.4757146 -57.63342096 86.40226354 -76 108 Z " fill="#000000" transform="translate(374,186)"/>
<path d="M0 0 C3 2 3 2 5 5 C5.66780415 8.3946711 5.90877657 9.81909432 5 13 C0.06754758 20.32900521 -7.37729917 26.52967557 -13.62426758 32.75463867 C-15.43360933 34.55862085 -17.23754319 36.36788665 -19.04101562 38.17773438 C-20.21322122 39.34927905 -21.38573704 40.52051342 -22.55859375 41.69140625 C-23.08593613 42.22077286 -23.6132785 42.75013947 -24.15660095 43.29554749 C-26.94254263 46.0645151 -29.78971573 48.70691771 -32.77026367 51.26586914 C-37.79473198 55.62035845 -42.43967547 60.33370937 -47.1171875 65.0546875 C-48.06473662 66.00665289 -49.01258776 66.95831774 -49.96072388 67.90969849 C-52.93501002 70.89529357 -55.90528133 73.88486264 -58.875 76.875 C-62.34014333 80.3637848 -65.80693451 83.85090022 -69.2779274 87.33386612 C-70.66153001 88.72394501 -72.04207495 90.11706516 -73.4225769 91.51022339 C-74.25749664 92.34844635 -75.09241638 93.18666931 -75.95263672 94.05029297 C-76.68795624 94.7908493 -77.42327576 95.53140564 -78.18087769 96.29440308 C-80.60396391 98.56627252 -81.79640656 98.96742505 -85.125 99.5 C-89.22828482 98.97054389 -89.88168862 98.58015574 -92.77172852 95.9309082 C-93.4700882 95.29343658 -94.16844788 94.65596497 -94.88796997 93.99917603 C-98.1482141 90.91313946 -101.35808629 87.78485043 -104.52734375 84.60546875 C-105.53892296 83.59532463 -105.53892296 83.59532463 -106.57093811 82.56477356 C-107.97959068 81.1567956 -109.38700499 79.74757776 -110.79321289 78.3371582 C-112.95279773 76.17216396 -115.11773882 74.01262744 -117.28320312 71.85351562 C-118.6565712 70.47948763 -120.02962951 69.10514994 -121.40234375 67.73046875 C-122.37408791 66.76176094 -122.37408791 66.76176094 -123.36546326 65.77348328 C-124.25758263 64.87663567 -124.25758263 64.87663567 -125.16772461 63.96166992 C-125.95426674 63.1739344 -125.95426674 63.1739344 -126.75669861 62.37028503 C-128.83037609 60.08481408 -129.01493829 58.84165408 -129.3125 55.6875 C-128.95124058 51.42463889 -127.98007946 49.98007946 -125 47 C-121.44005255 45.22002628 -117.75005676 45.98632101 -114 47 C-111.26422959 48.71417264 -109.18945558 50.86929045 -106.99609375 53.22265625 C-106.38733902 53.84273056 -105.77858429 54.46280487 -105.15138245 55.10166931 C-103.22702127 57.07052045 -101.33247592 59.06539242 -99.4375 61.0625 C-98.13143571 62.40872597 -96.82350949 63.7531482 -95.51367188 65.09570312 C-92.32052943 68.3766608 -89.15381855 71.68124273 -86 75 C-80.94573728 70.77125467 -76.22563967 66.34826562 -71.59765625 61.66015625 C-70.91626083 60.97497421 -70.23486542 60.28979218 -69.53282166 59.58384705 C-66.64832015 56.68316355 -63.76984634 53.77652617 -60.89086914 50.87036133 C-58.77441453 48.73568003 -56.65485374 46.60411672 -54.53515625 44.47265625 C-53.89844498 43.82764664 -53.2617337 43.18263702 -52.60572815 42.51808167 C-48.85532998 38.74762021 -44.97867666 35.20448505 -40.95426941 31.72941589 C-37.8178643 28.95387798 -34.88485862 25.9889305 -31.9453125 23.0078125 C-31.31769012 22.3764035 -30.69006775 21.74499451 -30.04342651 21.0944519 C-28.06813059 19.10708427 -26.09616401 17.11646536 -24.125 15.125 C-21.5054633 12.47891394 -18.88265329 9.83613587 -16.2578125 7.1953125 C-15.65889191 6.58809357 -15.05997131 5.98087463 -14.44290161 5.35525513 C-9.79396801 0.67863372 -6.72612348 -1.10601648 0 0 Z " fill="#000000" transform="translate(243,78)"/>
<path d="M0 0 C1.31225555 -0.0112793 2.62451111 -0.02255859 3.97653198 -0.03417969 C5.42389138 -0.02640307 6.87124858 -0.01821043 8.31860352 -0.00964355 C9.84816148 -0.01506576 11.37771422 -0.02218897 12.90725708 -0.03088379 C17.05605516 -0.04910866 21.20445506 -0.04205322 25.35326004 -0.02936745 C29.69645505 -0.01923539 34.03961614 -0.0286337 38.3828125 -0.03491211 C45.67625037 -0.04218792 52.96952619 -0.03260259 60.26293945 -0.0135498 C68.69331696 0.00821887 77.12330752 0.00116745 85.55367565 -0.02085543 C92.79374343 -0.03901135 100.03369477 -0.04156683 107.27377796 -0.03110075 C111.59712377 -0.02486685 115.92028773 -0.02402727 120.24362183 -0.0372467 C124.3083697 -0.04880745 128.37261902 -0.04077579 132.43731308 -0.01766968 C133.92843676 -0.01238372 135.41960245 -0.01389449 136.91070938 -0.02272034 C138.94713079 -0.03366197 140.98364395 -0.01750336 143.02001953 0 C144.72896141 0.00226215 144.72896141 0.00226215 146.47242737 0.00457001 C150.18593018 0.61994285 151.85213837 1.89002628 154.51000977 4.50793457 C155.65327512 7.48042449 155.62109391 9.04138117 154.88500977 12.13293457 C153.13921039 15.14840622 151.63171614 15.98267819 148.51000977 17.50793457 C145.50366211 17.88545799 145.50366211 17.88545799 142.09594727 17.8888855 C140.1528064 17.90157471 140.1528064 17.90157471 138.17041016 17.91452026 C136.7419421 17.90868783 135.31347528 17.90254335 133.88500977 17.89611816 C132.3751589 17.90018488 130.86531101 17.90552733 129.35546875 17.91204834 C125.26044405 17.92571589 121.1656463 17.92042566 117.07061768 17.91091108 C112.78348177 17.90331157 108.49636519 17.91036091 104.20922852 17.91506958 C97.00997431 17.92052628 89.81081245 17.91333777 82.61157227 17.89904785 C74.29031473 17.88272148 65.96927771 17.88801005 57.64802551 17.90452707 C50.5013897 17.91814437 43.35482025 17.9200604 36.20817566 17.91221106 C31.94074896 17.90753588 27.67342589 17.90690541 23.40600586 17.91682053 C19.39386684 17.92549149 15.38201192 17.91946606 11.36990356 17.90213776 C9.89812695 17.89817359 8.42632639 17.8993058 6.95455933 17.90592575 C4.9444057 17.91413321 2.93419978 17.90201215 0.92407227 17.8888855 C-0.76274658 17.88718888 -0.76274658 17.88718888 -2.48364258 17.88545799 C-6.16281572 17.42344422 -8.84897739 16.14894742 -11.48999023 13.50793457 C-11.76342773 11.58215332 -11.76342773 11.58215332 -11.86499023 9.19543457 C-11.91397461 8.41555176 -11.96295898 7.63566895 -12.01342773 6.83215332 C-10.67751854 0.90031774 -5.30641687 0.00702419 0 0 Z " fill="#000000" transform="translate(94.489990234375,356.4920654296875)"/>
<path d="M0 0 C0.67846513 -0.00623996 1.35693026 -0.01247993 2.05595493 -0.01890898 C4.32859142 -0.03485958 6.60015837 -0.02222777 8.87280273 -0.00964355 C10.50235622 -0.0150638 12.1319048 -0.02218591 13.76144409 -0.03088379 C18.18707652 -0.04913186 22.6123363 -0.04204359 27.03797531 -0.02936745 C31.66725425 -0.01924743 36.29650107 -0.02863035 40.92578125 -0.03491211 C48.70017227 -0.04219143 56.47441134 -0.03259336 64.2487793 -0.0135498 C73.23980034 0.00821951 82.23045858 0.00116834 91.22147083 -0.02085543 C98.93792993 -0.03900133 106.65427975 -0.04157172 114.37075329 -0.03110075 C118.98080073 -0.02486135 123.59067759 -0.0240424 128.20071411 -0.0372467 C132.53464891 -0.04879285 136.8681155 -0.04080235 141.20199966 -0.01766968 C142.7935216 -0.01237594 144.38508286 -0.01390776 145.9765892 -0.02272034 C148.1475242 -0.03363399 150.31695418 -0.01996558 152.48779297 0 C154.31068092 0.00226215 154.31068092 0.00226215 156.1703949 0.00457001 C159.83503805 0.60474913 161.00618505 1.60422676 163.24389648 4.50793457 C163.81030273 6.50793457 163.81030273 6.50793457 163.80639648 8.50793457 C163.82831055 9.16793457 163.85022461 9.82793457 163.87280273 10.50793457 C162.87917639 13.66778979 160.96477544 14.71158493 158.24389648 16.50793457 C155.06296444 17.01129913 155.06296444 17.01129913 151.40550232 17.01586914 C150.39264832 17.02522908 150.39264832 17.02522908 149.35933262 17.03477812 C147.10361723 17.05069443 144.84898453 17.03811044 142.59326172 17.0255127 C140.97341279 17.03093441 139.35356879 17.03805735 137.73373413 17.04675293 C133.33915061 17.064982 128.94494287 17.05792095 124.55035281 17.04523659 C119.95177623 17.03510847 115.35323178 17.04450158 110.75465393 17.05078125 C103.03331729 17.05805747 95.31213371 17.04846986 87.59082031 17.02941895 C78.66169364 17.00764252 69.7329322 17.0147072 60.80381435 17.03672457 C53.13828987 17.0548701 45.4728754 17.05744128 37.80733639 17.04696989 C33.22860257 17.04073128 28.65004049 17.03990954 24.07131767 17.05311584 C19.7677371 17.06466173 15.46462805 17.05667202 11.16109848 17.03353882 C9.58086366 17.02824526 8.00058922 17.02977658 6.4203701 17.03858948 C4.26481159 17.04950371 2.11076864 17.03583423 -0.04469299 17.01586914 C-1.25127847 17.01436104 -2.45786394 17.01285294 -3.70101261 17.01129913 C-7.3521022 16.40973631 -8.52555004 15.40128497 -10.75610352 12.50793457 C-11.28735352 10.50793457 -11.28735352 10.50793457 -11.25610352 8.50793457 C-11.27157227 7.51793457 -11.27157227 7.51793457 -11.28735352 6.50793457 C-9.72685063 0.63310017 -5.41329593 0.00671775 0 0 Z " fill="#000000" transform="translate(93.756103515625,393.4920654296875)"/>
<path d="M0 0 C6.37149282 3.57721525 10.43189539 8.11418214 12.84375 15.03515625 C14.26275593 21.31932539 13.81111118 26.88213379 11.84375 33.03515625 C11.28429687 33.75574219 10.72484375 34.47632813 10.1484375 35.21875 C8.10191451 39.63654364 9.57025601 43.32289662 10.71875 47.91015625 C13.53404184 59.46138398 13.53404184 59.46138398 11.84375 65.03515625 C8.96563418 68.05680284 7.31527182 68.97123954 3.14257812 69.53686523 C1.72018454 69.55636714 0.2973561 69.55331729 -1.125 69.53125 C-1.88292847 69.53270523 -2.64085693 69.53416046 -3.42175293 69.53565979 C-5.01867531 69.53400532 -6.61561438 69.52249462 -8.21240234 69.50170898 C-10.64880496 69.47274476 -13.08303026 69.48110989 -15.51953125 69.49414062 C-17.07553135 69.48790261 -18.63152461 69.47951116 -20.1875 69.46875 C-21.27363586 69.47315346 -21.27363586 69.47315346 -22.38171387 69.47764587 C-26.79539591 69.3958232 -29.64519637 68.75273502 -33.15625 66.03515625 C-36.13358746 60.08048133 -33.23483464 52.58809775 -31.71484375 46.53515625 C-30.92197957 41.56728001 -31.32462634 37.6291016 -33.65625 33.16015625 C-36.55349438 27.12423046 -36.776612 20.75125536 -35.0625 14.30078125 C-32.1309447 6.971893 -27.00762125 1.99362326 -19.8359375 -1.15625 C-13.21276665 -3.15478698 -6.34030125 -2.79337043 0 0 Z M-17.15625 17.03515625 C-19.47388143 19.89378083 -19.47388143 19.89378083 -19.09375 23.34765625 C-18.43094163 27.19299615 -18.43094163 27.19299615 -15.53125 29.84765625 C-12.93572586 33.33112286 -12.85521784 33.78782033 -13.28125 37.84765625 C-13.55717352 39.57940479 -13.84914607 41.30866444 -14.15625 43.03515625 C-14.35544312 44.74216566 -14.54374558 46.45049766 -14.71875 48.16015625 C-14.863125 49.43890625 -15.0075 50.71765625 -15.15625 52.03515625 C-12.18625 52.03515625 -9.21625 52.03515625 -6.15625 52.03515625 C-6.300625 51.26171875 -6.445 50.48828125 -6.59375 49.69140625 C-9.39681999 33.96306907 -9.39681999 33.96306907 -7 30.23828125 C-6.07555044 29.07758347 -5.14726653 27.91992742 -4.21484375 26.765625 C-2.83010037 24.84010082 -2.83010037 24.84010082 -3.15625 21.28515625 C-4.27965278 17.46535027 -4.27965278 17.46535027 -7.15625 15.03515625 C-11.49076216 13.43823072 -13.5398189 14.29839758 -17.15625 17.03515625 Z " fill="#000000" transform="translate(357.15625,307.96484375)"/>
<path d="M0 0 C1.26184113 -0.00983414 2.52368225 -0.01966827 3.82376099 -0.02980042 C5.21966823 -0.02042866 6.61557278 -0.01064936 8.01147461 -0.00050354 C9.48339352 -0.00428707 10.95530887 -0.0097874 12.42721558 -0.01687622 C16.42313889 -0.03084389 20.41863225 -0.01965212 24.41453171 -0.00316501 C28.59536837 0.01068036 32.77617994 0.004226 36.95703125 0.0007019 C43.97817925 -0.00200063 50.99915634 0.01147904 58.02026367 0.03465271 C66.13874137 0.06126278 74.25693328 0.06300974 82.37543964 0.05126435 C90.18375112 0.04048672 97.99195918 0.0466735 105.80026245 0.06081963 C109.12395674 0.06657958 112.44757535 0.06649669 115.77127075 0.06175423 C119.6849196 0.05698336 123.59825535 0.0670904 127.51184464 0.08870888 C128.94855824 0.09427547 130.38530194 0.09474319 131.82201767 0.08975601 C133.782231 0.08380477 135.74247474 0.09813939 137.70263672 0.11352539 C139.34854042 0.11717023 139.34854042 0.11717023 141.0276947 0.12088871 C144.22550228 0.55160466 145.59116821 1.22430788 147.85131836 3.50120544 C148.95505214 7.47464706 149.26675418 9.59120316 147.53881836 13.37620544 C145.85131836 15.50120544 145.85131836 15.50120544 143.85131836 16.50120544 C141.88398215 16.60365166 139.91313263 16.64071692 137.94314575 16.64837646 C136.68405396 16.65553177 135.42496216 16.66268707 134.12771606 16.6700592 C132.72454859 16.67289958 131.32138084 16.67561129 129.91821289 16.6782074 C128.4465926 16.68447096 126.97497389 16.69111767 125.50335693 16.69812012 C121.49920777 16.7155378 117.49507055 16.72608361 113.49089289 16.73432565 C110.99059879 16.73947338 108.49030841 16.74554916 105.99001694 16.75183678 C98.1710602 16.7708896 90.35211293 16.78512146 82.53313744 16.79344875 C73.4999461 16.80322747 64.46699939 16.82956301 55.43389428 16.86994964 C48.45635235 16.9000783 41.47888068 16.91491445 34.50127494 16.91822976 C30.33157181 16.92058366 26.16213 16.92958803 21.99249649 16.95469093 C18.07066279 16.97792061 14.14926343 16.98222578 10.22737885 16.97192955 C8.78741641 16.97143285 7.34743297 16.97779274 5.90753555 16.9914856 C3.94292212 17.00912413 1.97812126 16.99973932 0.01345825 16.98895264 C-1.08640852 16.99134099 -2.18627529 16.99372934 -3.31947136 16.99619007 C-6.812176 16.38512375 -7.98432084 15.25187113 -10.14868164 12.50120544 C-10.67993164 10.50120544 -10.67993164 10.50120544 -10.64868164 8.50120544 C-10.66415039 7.51120544 -10.66415039 7.51120544 -10.67993164 6.50120544 C-9.20203688 0.93736636 -5.19671684 0.00099118 0 0 Z " fill="#000000" transform="translate(93.148681640625,320.49879455566406)"/>
<path d="M0 0 C1.1155854 -0.01051392 1.1155854 -0.01051392 2.25370789 -0.02124023 C4.70272585 -0.03879038 7.15058045 -0.02720897 9.59960938 -0.01367188 C11.30684632 -0.01636767 13.01408177 -0.02025082 14.72131348 -0.02526855 C18.29564055 -0.03115953 21.8695672 -0.0226138 25.44384766 -0.00390625 C30.02059045 0.01888336 34.59639495 0.00575808 39.17310333 -0.01819611 C42.69735761 -0.03266508 46.22139021 -0.02804312 49.74565125 -0.01768494 C51.43291841 -0.01502068 53.12020585 -0.01827685 54.80744934 -0.02760315 C57.1677464 -0.03778727 59.52653386 -0.02224373 61.88671875 0 C62.92798164 -0.01214539 62.92798164 -0.01214539 63.99028015 -0.02453613 C68.71365492 0.05773919 71.13391392 1.16708952 74.44335938 4.51757812 C75.07226562 6.51757812 75.07226562 6.51757812 75.00585938 8.51757812 C75.00714844 9.17757813 75.0084375 9.83757812 75.00976562 10.51757812 C74.16653652 13.49504916 72.88018055 14.61447766 70.44335938 16.51757812 C67.75870096 16.91246178 65.4833492 17.0654059 62.80078125 17.03515625 C62.03609024 17.04216553 61.27139923 17.0491748 60.48353577 17.05639648 C57.95935604 17.07398163 55.43630022 17.06235261 52.91210938 17.04882812 C51.15620712 17.05152291 49.40030632 17.05540521 47.64440918 17.0604248 C43.96575706 17.06632053 40.28749364 17.05775468 36.60888672 17.0390625 C31.89414277 17.01627269 27.18030959 17.0293954 22.46559906 17.05335236 C18.84016053 17.06780845 15.21493784 17.06320526 11.5894928 17.05284119 C9.85115959 17.05017337 8.11280677 17.05344562 6.37449646 17.0627594 C3.94444904 17.07292219 1.51587518 17.05742944 -0.9140625 17.03515625 C-1.63210556 17.04325317 -2.35014862 17.0513501 -3.08995056 17.05969238 C-6.51313025 17.00158137 -8.26519658 16.74518912 -10.99890137 14.61022949 C-12.67907704 12.35309827 -13.12457204 11.29846178 -13.11914062 8.51757812 C-13.14105469 7.85757812 -13.16296875 7.19757813 -13.18554688 6.51757812 C-11.27604582 0.44512756 -5.5005659 -0.0641591 0 0 Z " fill="#000000" transform="translate(95.556640625,284.482421875)"/>
<path d="M0 0 C1.07242699 -0.00717545 1.07242699 -0.00717545 2.16651917 -0.01449585 C3.6752442 -0.01789075 5.18404319 -0.00871646 6.69262695 0.01220703 C8.99403214 0.03894777 11.29054444 0.01247504 13.59179688 -0.01953125 C15.06120862 -0.0162263 16.53061734 -0.00981828 18 0 C19.02522011 -0.01518173 19.02522011 -0.01518173 20.07115173 -0.03067017 C23.88684639 0.06222256 25.48783965 0.60102355 28.50024414 3.01806641 C30.56640625 5.6640625 30.56640625 5.6640625 31.19140625 8.6640625 C30.34120134 12.74504606 28.79843728 14.07079936 25.56640625 16.6640625 C22.83066946 17.16497471 20.72591242 17.36849104 18 17.328125 C16.92613792 17.33530045 16.92613792 17.33530045 15.83058167 17.34262085 C14.32363679 17.34601022 12.81661742 17.33687489 11.30981445 17.31591797 C9.00630785 17.28909047 6.70765455 17.31570954 4.40429688 17.34765625 C2.9361872 17.34435274 1.46808053 17.3379477 0 17.328125 C-1.02825645 17.34330673 -1.02825645 17.34330673 -2.07728577 17.35879517 C-5.75073646 17.2689278 -7.18852081 16.9011442 -9.86694336 14.31005859 C-11.79750086 11.04944114 -12.05550974 9.39555846 -11.43359375 5.6640625 C-8.41603442 0.56755198 -5.62041001 -0.08298276 0 0 Z " fill="#000000" transform="translate(421.43359375,458.3359375)"/>
</svg>
