<?xml version="1.0" standalone="no"?>
<!DOCTYPE svg PUBLIC "-//W3C//DTD SVG 20010904//EN"
 "http://www.w3.org/TR/2001/REC-SVG-20010904/DTD/svg10.dtd">
<svg version="1.0" xmlns="http://www.w3.org/2000/svg"
 width="300.000000pt" height="300.000000pt" viewBox="0 0 300.000000 300.000000"
 preserveAspectRatio="xMidYMid meet">
<metadata>
Created by potrace 1.10, written by Peter Selinger 2001-2011
</metadata>
<g transform="translate(0.000000,300.000000) scale(0.100000,-0.100000)"
fill="#000000" stroke="none">
<path d="M1300 2849 c-87 -17 -170 -67 -257 -154 -69 -70 -89 -98 -131 -186
-49 -103 -72 -173 -72 -223 0 -14 -4 -26 -9 -26 -10 0 -21 50 -21 100 0 41
-19 64 -47 58 -36 -7 -103 -168 -103 -249 l0 -39 -274 0 c-158 0 -277 -4 -281
-9 -7 -12 -7 -1540 0 -1552 4 -5 357 -9 884 -9 l877 0 18 -37 c75 -159 240
-301 419 -362 l53 -19 76 28 c207 75 360 236 439 460 20 59 23 89 28 325 3
143 6 261 5 262 0 2 -117 36 -260 77 l-259 74 -5 379 -5 378 -282 3 -283 2 0
38 c0 143 -123 335 -269 422 -126 74 -154 64 -126 -46 20 -81 14 -128 -21
-150 -20 -14 -29 -14 -53 -4 -92 38 -78 213 30 381 34 53 34 53 13 73 -17 18
-19 18 -84 5z m34 -47 c2 -4 -2 -16 -10 -26 -13 -19 -14 -19 -34 -1 -20 18
-20 20 -3 26 25 10 41 11 47 1z m-54 -37 c0 -3 -7 -16 -15 -28 -55 -85 -73
-254 -34 -334 37 -76 103 -107 179 -84 60 18 85 61 85 143 0 38 3 68 6 68 3 0
27 -16 53 -36 61 -46 129 -138 156 -212 28 -72 37 -200 20 -273 -31 -135 -140
-272 -262 -331 -68 -34 -68 -34 -68 -5 0 65 -81 130 -164 130 -82 0 -135 -36
-161 -110 -15 -42 -18 -42 -85 -10 -80 40 -165 130 -213 225 l-42 85 0 116 c0
64 4 125 8 136 7 17 10 15 26 -21 22 -48 74 -94 107 -94 13 0 24 3 25 8 0 4 2
42 4 85 9 207 138 420 315 521 45 26 60 31 60 21z m210 -195 c13 -9 13 -11 0
-20 -19 -13 -34 -8 -38 13 -4 19 15 22 38 7z m-685 -319 c11 -12 19 -12 40 -3
24 11 25 11 25 -28 0 -52 -13 -57 -44 -18 -45 57 -59 68 -83 68 -20 0 -22 2
-12 27 21 56 33 59 46 12 7 -24 20 -50 28 -58z m-115 -162 c0 -27 -2 -30 -15
-19 -24 20 -19 39 13 49 1 1 2 -13 2 -30z m1120 6 c0 -7 -7 -18 -15 -25 -13
-11 -15 -8 -15 18 0 24 4 30 15 26 8 -4 15 -12 15 -19z m198 -25 c-11 -18 -28
-27 -28 -16 0 2 -3 11 -6 20 -5 12 0 16 20 16 24 0 25 -2 14 -20z m-1336 -81
c10 -40 27 -89 38 -111 11 -21 20 -41 20 -43 0 -3 -126 -5 -280 -5 l-280 0 0
115 0 115 243 0 242 0 17 -71z m1288 -44 l0 -115 -110 0 c-60 0 -110 2 -110 5
0 3 11 27 24 53 13 26 30 76 36 110 l13 62 73 0 74 0 0 -115z m350 0 l0 -115
-139 0 -140 0 -3 115 -3 115 143 0 142 0 0 -115z m-1522 -127 c12 -18 20 -33
19 -34 -1 -1 -22 1 -46 5 -42 6 -44 7 -28 23 9 9 17 21 17 27 0 21 18 11 38
-21z m932 24 c0 -5 9 -18 20 -30 16 -17 17 -22 6 -22 -19 0 -56 -48 -56 -73 0
-19 -1 -19 -20 3 -11 13 -26 20 -35 16 -23 -8 -19 1 27 60 40 51 58 65 58 46z
m298 -30 c14 -21 13 -22 -27 -22 -43 0 -45 5 -16 37 13 16 25 12 43 -15z
m-1846 -5 c15 -12 15 -14 -3 -25 -26 -17 -29 -15 -29 13 0 28 7 30 32 12z
m2168 -12 c0 -28 -3 -30 -29 -13 -18 11 -18 13 -3 25 25 18 32 16 32 -12z
m-1828 -25 c-14 -16 -26 -28 -26 -27 -1 1 -12 14 -25 30 l-24 27 50 0 51 0
-26 -30z m-62 -125 l0 -115 -140 0 -140 0 0 115 0 115 140 0 140 0 0 -115z
m380 69 c49 -49 133 -104 193 -125 28 -10 37 -18 37 -36 l0 -23 -267 0 -268 0
0 115 0 115 130 0 131 0 44 -46z m1480 -69 l0 -115 -290 0 -290 0 0 115 0 115
290 0 290 0 0 -115z m-1010 70 c21 -13 41 -67 35 -94 -4 -19 -1 -34 9 -44 14
-13 21 -13 63 -1 74 22 146 60 196 104 25 22 47 40 49 40 1 0 3 -43 3 -95 l0
-95 -269 0 -268 0 6 28 c4 15 8 45 10 67 4 64 26 91 86 108 15 4 61 -6 80 -18z
m120 -102 c0 -2 -11 -3 -25 -3 -20 0 -25 5 -25 25 l0 25 25 -22 c14 -12 25
-23 25 -25z m-320 2 c0 -39 -5 -42 -32 -18 -17 15 -17 17 -2 35 25 27 34 22
34 -17z m-570 -121 c0 -2 -18 -4 -41 -4 l-40 0 17 29 18 30 23 -25 c13 -14 23
-27 23 -30z m582 24 c20 -23 20 -23 -1 -26 -12 -2 -30 -2 -41 0 -19 3 -20 4
-5 26 9 12 19 22 22 22 3 0 14 -10 25 -22z m603 2 c23 -26 16 -32 -29 -28 -36
3 -36 3 -21 26 20 27 27 27 50 2z m-1546 -13 c8 -10 7 -17 -1 -25 -19 -19 -28
-14 -28 13 0 27 12 32 29 12z m2171 -12 c0 -28 -3 -30 -29 -13 -18 11 -18 13
-3 25 25 18 32 16 32 -12z m-1526 -20 c-15 -23 -19 -24 -37 -12 -36 24 -32 37
12 37 l41 0 -16 -25z m598 -5 c-17 -30 -32 -39 -32 -20 0 6 -9 19 -20 30 -20
20 -20 20 25 20 l44 0 -17 -30z m618 24 c0 -3 -9 -17 -19 -30 l-19 -25 -16 22
c-8 12 -13 26 -10 31 6 9 64 11 64 2z m-1275 -149 l0 -115 -292 0 -293 0 0
115 0 115 293 0 292 0 0 -115z m600 0 l0 -115 -265 0 -265 0 0 115 0 115 265
0 265 0 0 -115z m605 16 l0 -100 -54 -15 c-42 -12 -103 -16 -268 -16 l-213 0
0 115 0 115 268 0 267 0 0 -99z m350 49 l0 -49 -42 -11 c-24 -6 -86 -25 -139
-41 -53 -16 -98 -29 -100 -29 -2 0 -4 40 -4 90 l0 90 143 0 142 0 0 -50z m57
-66 c2 -6 -8 -14 -22 -16 -28 -6 -27 -6 -19 17 7 17 35 17 41 -1z m225 -111
l238 -68 0 -197 c0 -212 -10 -282 -55 -385 -34 -76 -104 -172 -167 -228 -64
-55 -207 -129 -252 -129 -45 0 -170 62 -237 117 -69 56 -137 145 -178 231 -47
101 -61 190 -61 403 l0 188 228 66 c125 37 232 67 237 68 6 1 117 -29 247 -66z
m-552 16 c0 -8 -37 -19 -62 -19 -16 0 -16 2 0 29 15 28 17 28 39 12 12 -9 23
-19 23 -22z m-1230 -57 c-11 -2 -30 -2 -42 0 l-23 3 24 24 24 24 18 -24 c18
-23 18 -24 -1 -27z m608 20 c14 -21 13 -22 -27 -22 l-41 0 16 25 c19 29 31 28
52 -3z m-1249 -5 c8 -10 7 -17 -1 -25 -19 -19 -28 -14 -28 13 0 27 12 32 29
12z m351 -15 c0 -4 -7 -18 -16 -30 l-15 -22 -19 22 c-13 17 -15 25 -7 30 16
10 57 10 57 0z m594 -1 c3 -4 0 -16 -7 -25 -12 -16 -14 -16 -35 2 -12 10 -19
22 -15 26 9 9 51 7 57 -3z m600 3 c13 -5 13 -8 2 -20 -8 -7 -17 -19 -20 -26
-5 -11 -7 -11 -12 0 -3 7 -12 19 -20 26 -11 11 -11 16 -1 19 18 8 33 8 51 1z
m156 -1 c-1 -5 -7 -19 -14 -31 l-13 -24 -16 25 c-9 14 -13 27 -10 31 9 9 53 7
53 -1z m-1420 -148 l0 -115 -140 0 -140 0 0 115 0 115 140 0 140 0 0 -115z
m610 0 l0 -115 -267 0 -268 0 0 115 0 115 268 0 267 0 0 -115z m595 0 l0 -115
-267 0 -268 0 0 115 0 115 268 0 267 0 0 -115z m155 0 l0 -115 -40 0 -40 0 0
115 0 115 40 0 40 0 0 -115z m-1314 -153 c-48 -4 -52 1 -29 32 l18 26 24 -28
25 -27 -38 -3z m615 0 c-12 -2 -31 -2 -43 0 l-23 3 24 22 24 22 20 -22 c19
-22 19 -22 -2 -25z m609 23 l23 -25 -54 0 -54 0 25 24 c31 31 32 31 60 1z
m130 -20 c0 -39 -5 -42 -32 -18 -17 15 -17 17 -2 35 25 27 34 22 34 -17z
m-1678 12 c15 -12 15 -14 -3 -25 -26 -17 -29 -15 -29 13 0 28 7 30 32 12z
m648 -26 c-15 -28 -29 -35 -45 -21 -27 22 -17 40 20 40 32 0 35 -2 25 -19z
m600 5 c0 -7 -7 -19 -15 -26 -13 -10 -19 -10 -35 5 -29 26 -25 35 15 35 23 0
35 -5 35 -14z m-665 -141 l0 -115 -292 0 -293 0 0 115 0 115 293 0 292 0 0
-115z m600 0 l0 -115 -265 0 -265 0 0 115 0 115 265 0 265 0 0 -115z m455 68
c1 -46 9 -96 25 -155 l7 -28 -208 0 -209 0 0 115 0 115 193 0 192 0 0 -47z
m84 -210 c8 -26 -2 -29 -28 -10 -16 12 -17 16 -5 35 14 23 20 18 33 -25z
m-1084 5 c0 -5 -12 -8 -27 -8 -26 0 -26 0 -8 20 14 16 20 17 27 8 4 -7 8 -16
8 -20z m598 12 c11 -18 10 -20 -18 -20 -28 0 -29 2 -18 20 7 11 15 20 18 20 3
0 11 -9 18 -20z"/>
<path d="M2263 1092 c-77 -28 -129 -66 -167 -125 -106 -160 -51 -367 119 -454
66 -35 172 -42 243 -19 65 22 145 93 180 160 23 44 27 63 27 136 0 73 -4 93
-28 142 -66 135 -238 209 -374 160z m185 -78 c74 -30 133 -107 147 -191 15
-90 -43 -201 -128 -245 -64 -34 -167 -32 -229 5 -144 84 -166 269 -46 384 18
18 49 39 68 47 46 20 141 20 188 0z"/>
<path d="M2397 838 l-65 -72 -39 27 c-22 15 -46 27 -54 27 -18 0 -39 -19 -39
-37 0 -16 118 -103 140 -103 19 0 170 172 170 194 0 13 -28 36 -44 36 -2 0
-34 -32 -69 -72z"/>
</g>
</svg>
