<?xml version="1.0" standalone="no"?>
<!DOCTYPE svg PUBLIC "-//W3C//DTD SVG 20010904//EN"
 "http://www.w3.org/TR/2001/REC-SVG-20010904/DTD/svg10.dtd">
<svg version="1.0" xmlns="http://www.w3.org/2000/svg"
 width="512.000000pt" height="512.000000pt" viewBox="0 0 512.000000 512.000000"
 preserveAspectRatio="xMidYMid meet">

<g transform="translate(0.000000,512.000000) scale(0.100000,-0.100000)"
fill="#000000" stroke="none">
<path d="M1193 5104 c-80 -29 -153 -131 -153 -215 0 -15 -8 -36 -17 -47 -18
-20 -154 -82 -181 -82 -8 0 -40 16 -72 36 -74 45 -128 58 -192 45 -67 -15
-112 -46 -201 -140 -63 -68 -80 -93 -93 -139 -22 -74 -9 -140 40 -214 20 -29
36 -60 36 -68 0 -28 -61 -165 -82 -182 -11 -10 -32 -18 -47 -18 -87 0 -186
-73 -215 -157 -22 -64 -22 -262 0 -326 29 -84 128 -157 215 -157 15 0 36 -8
47 -17 21 -18 82 -155 82 -183 0 -8 -16 -38 -35 -66 -50 -73 -63 -142 -41
-219 16 -54 28 -70 116 -157 86 -86 104 -99 156 -114 76 -22 141 -10 216 40
29 20 59 36 68 36 8 0 38 -10 67 -22 l52 -21 3 -231 c3 -216 4 -234 26 -281
13 -27 36 -67 53 -87 l29 -37 -34 -45 c-72 -94 -71 -87 -71 -606 l0 -465 24
-45 c90 -171 308 -299 676 -395 410 -108 1000 -150 1475 -105 l94 9 87 -93
c219 -233 511 -351 822 -333 449 26 823 333 944 772 25 90 28 116 27 260 0
130 -4 176 -21 245 -79 313 -286 564 -576 700 -45 21 -103 44 -129 50 -27 7
-48 15 -48 18 0 2 18 25 41 49 22 25 53 70 67 101 l27 57 3 443 c3 490 2 503
-59 595 -139 210 -600 376 -1221 442 -216 22 -263 21 -293 -10 -33 -32 -33
-74 0 -105 22 -20 39 -24 142 -32 562 -39 1010 -165 1194 -336 33 -30 59 -62
59 -71 -1 -40 -215 -160 -395 -219 -187 -62 -401 -105 -680 -139 -214 -25
-796 -25 -1010 0 -269 32 -487 77 -675 139 -190 62 -399 178 -400 221 0 25 84
104 154 146 235 140 710 244 1225 267 204 9 201 7 201 167 0 137 -15 190 -71
246 -40 40 -110 71 -160 71 -15 0 -36 8 -47 18 -21 17 -82 154 -82 182 0 8 16
39 36 68 50 74 62 140 40 215 -14 50 -30 72 -99 144 -45 46 -100 95 -122 108
-86 50 -173 45 -263 -16 -33 -21 -66 -39 -73 -39 -27 0 -164 62 -181 82 -10
11 -18 32 -18 47 0 87 -73 186 -157 215 -62 21 -270 21 -330 0z m289 -795
c152 -31 310 -156 380 -299 42 -88 58 -155 58 -249 l0 -69 -46 -7 c-73 -11
-271 -61 -374 -95 -184 -61 -386 -175 -448 -255 -26 -33 -42 -26 -110 51 -155
174 -186 420 -79 634 64 129 217 251 359 286 67 16 191 17 260 3z m-160 -1588
c688 -318 2108 -318 2796 0 46 21 111 57 143 79 l59 40 0 -267 c0 -238 -3
-273 -19 -308 -22 -48 -77 -100 -157 -147 -51 -30 -72 -36 -145 -41 -155 -12
-299 -58 -469 -151 -36 -19 -80 -28 -215 -45 -359 -44 -606 -48 -1019 -19
l-169 12 -22 -26 c-13 -15 -25 -32 -27 -39 -3 -9 -20 -9 -76 1 -65 11 -72 14
-72 35 0 44 -30 65 -130 90 -125 32 -146 32 -180 -5 l-28 -29 -76 25 c-72 24
-76 27 -76 56 0 47 -14 62 -102 112 -106 59 -171 115 -197 169 -20 41 -21 60
-21 310 l0 267 59 -40 c32 -22 97 -58 143 -79z m2815 -983 c29 -27 30 -76 4
-110 l-19 -24 66 -12 c208 -40 383 -207 437 -417 30 -119 15 -263 -40 -380
-47 -99 -102 -129 -157 -85 -39 30 -40 62 -2 140 80 164 56 338 -65 463 -50
53 -135 101 -197 113 -38 7 -39 6 -21 -13 43 -48 2 -133 -65 -133 -27 0 -47
15 -135 103 -138 138 -138 136 -1 274 91 91 107 103 137 103 22 0 43 -8 58
-22z m-2887 -260 c329 -181 966 -291 1580 -275 l216 6 0 -157 c-1 -172 17
-273 70 -400 15 -34 24 -65 22 -67 -3 -3 -100 -10 -216 -17 -399 -22 -852 20
-1213 112 -211 54 -416 145 -505 223 -81 71 -84 82 -84 391 l0 268 33 -24 c17
-14 61 -41 97 -60z m2469 -103 c51 -26 54 -67 11 -151 -79 -156 -46 -350 80
-468 52 -49 130 -91 191 -102 33 -7 34 -7 17 13 -45 50 -6 133 61 133 33 0 47
-10 139 -103 138 -139 138 -138 -2 -275 -87 -86 -108 -102 -135 -102 -67 0
-104 78 -62 132 l19 24 -66 12 c-205 38 -382 205 -437 412 -8 30 -15 93 -15
140 0 172 79 347 158 350 7 0 26 -7 41 -15z"/>
<path d="M1335 2458 c-46 -25 -59 -74 -30 -115 27 -38 341 -141 570 -186 250
-50 515 -76 558 -56 31 14 52 59 43 94 -11 42 -42 53 -191 65 -272 22 -525 75
-781 164 -145 51 -141 50 -169 34z"/>
<path d="M3980 2439 c-41 -16 -85 -34 -97 -39 -55 -23 -65 -88 -22 -131 28
-28 81 -21 184 22 111 46 143 101 90 154 -31 32 -62 31 -155 -6z"/>
<path d="M3505 2310 c-49 -9 -98 -21 -108 -25 -42 -17 -50 -90 -14 -122 34
-31 47 -32 150 -14 112 20 147 43 147 96 0 34 -29 69 -65 78 -11 3 -60 -3
-110 -13z"/>
<path d="M1335 1178 c-46 -25 -59 -74 -30 -115 27 -38 341 -141 570 -186 250
-50 515 -76 558 -56 51 23 60 104 14 132 -13 9 -83 19 -172 26 -287 23 -573
87 -829 185 -76 29 -83 30 -111 14z"/>
</g>
</svg>
