<?xml version="1.0" standalone="no"?>
<!DOCTYPE svg PUBLIC "-//W3C//DTD SVG 20010904//EN"
 "http://www.w3.org/TR/2001/REC-SVG-20010904/DTD/svg10.dtd">
<svg version="1.0" xmlns="http://www.w3.org/2000/svg"
 width="512.000000pt" height="512.000000pt" viewBox="0 0 512.000000 512.000000"
 preserveAspectRatio="xMidYMid meet">

<g transform="translate(0.000000,512.000000) scale(0.100000,-0.100000)"
fill="#000000" stroke="none">
<path d="M2464 4580 c-34 -5 -93 -19 -130 -33 -109 -38 -1888 -1025 -1952
-1082 -74 -67 -104 -130 -110 -230 -3 -66 0 -91 19 -140 46 -122 33 -114 1057
-679 508 -279 955 -520 995 -534 65 -23 87 -26 217 -26 178 0 207 8 433 131
l157 85 0 131 0 131 -364 366 c-201 201 -370 378 -375 393 -16 42 -13 83 9
127 35 68 107 100 183 80 37 -10 90 -60 435 -403 216 -216 401 -405 410 -422
9 -19 18 -67 21 -126 l6 -96 610 336 c678 374 700 389 743 504 50 131 20 262
-82 361 -55 54 -152 110 -946 549 -487 269 -912 502 -946 517 -115 54 -266 77
-390 60z"/>
<path d="M910 2040 c0 -292 3 -386 15 -444 51 -246 217 -455 448 -561 157 -72
105 -69 985 -72 l792 -4 0 -158 c0 -147 2 -160 23 -192 32 -49 105 -83 158
-74 53 9 115 64 129 113 5 21 10 99 10 174 l0 137 38 6 c165 27 304 87 417
182 118 99 202 227 256 388 23 68 24 82 27 473 2 221 0 402 -3 402 -3 0 -170
-91 -370 -202 l-365 -202 0 -523 0 -523 -160 0 -160 0 0 430 c0 238 -4 430 -9
430 -5 0 -49 -22 -98 -50 -177 -97 -302 -131 -481 -131 -127 0 -222 16 -324
54 -35 14 -346 180 -690 371 -345 190 -629 346 -633 346 -3 0 -5 -167 -5 -370z"/>
</g>
</svg>
